# xmcd
#
# Track frame offsets:
#	150
#	16862
#	34467
#	55967
#	72657
#	94552
#	123905
#	144357
#	159107
#	169747
#	193177
#
# Disc length: 2739 seconds
#
# Revision: 1
# Processed by: cddbd v1.5.1PL0 Copyright (c) Steve Scherf et al.
# Submitted via: audiograbber 1.83.01
#
DISCID=910ab10b
DTITLE=Mal Eastick - The Southern Line
DYEAR=1995
DGENRE=Blues
TTITLE0=Goin' Home Tonight
TTITLE1=Don't Take Advantage Of Me
TTITLE2=Ocean Deep
TTITLE3=Jumpin' With Stevie
TTITLE4=My Life Story
TTITLE5=Boundarry Rider
TTITLE6=Two Loves
TTITLE7=Louise
TTITLE8=The Double 'EE' Boogie
TTITLE9=Gone, Gone, Gone
TTITLE10=Times Like These
EXTD=ID3G: 0
EXTT0=
EXTT1=
EXTT2=
EXTT3=
EXTT4=
EXTT5=
EXTT6=
EXTT7=
EXTT8=
EXTT9=
EXTT10=
PLAYORDER=
